<svg width="32" height="32" viewBox="0 0 32 32" fill="none" xmlns="http://www.w3.org/2000/svg"><path d="M17.824 18.075c.22.165.33.412.33.742 0 .209-.033.385-.099.528-.066.132-.16.248-.28.347-.11.087-.242.165-.396.23a6.08 6.08 0 01-.479.149v-2.508c.396.176.704.347.924.512zM14.524 14.164c-.22-.242-.33-.495-.33-.759 0-.297.11-.555.33-.775.22-.22.5-.375.842-.463v2.525a2.116 2.116 0 01-.842-.528z" fill="currentColor"/><path fill-rule="evenodd" clip-rule="evenodd" d="M16 28c6.627 0 12-5.373 12-12S22.627 4 16 4 4 9.373 4 16s5.373 12 12 12zm-2.631-6.345a6.543 6.543 0 001.997.479v1.699H16.9v-1.765c1.001-.177 1.81-.55 2.426-1.123.616-.572.924-1.336.924-2.293 0-.407-.061-.759-.182-1.056a2.467 2.467 0 00-.512-.808 3.224 3.224 0 00-.775-.595 9.737 9.737 0 00-.957-.495l-.924-.346v-3.201a3.446 3.446 0 011.65.874l1.238-1.435a4.237 4.237 0 00-1.354-.924 5.835 5.835 0 00-1.534-.446V8.505h-1.534v1.733a4.401 4.401 0 00-1.354.396 3.612 3.612 0 00-1.023.71c-.286.274-.506.599-.66.973a2.968 2.968 0 00-.23 1.171c0 .43.071.809.214 1.139.143.319.33.605.561.858.231.253.49.467.775.644.287.175.573.33.859.462l.858.33v3.217a4.622 4.622 0 01-1.271-.445 4.331 4.331 0 01-1.106-.826l-1.303 1.585c.495.527 1.056.929 1.683 1.204z" fill="currentColor"/></svg>