<svg width="32" height="32" viewBox="0 0 32 32" fill="none" xmlns="http://www.w3.org/2000/svg"><path d="M15.904 15.6H14.32v-3.73h1.584c.792 0 1.391.133 1.798.397.418.253.627.709.627 1.369s-.209 1.155-.627 1.485c-.407.319-1.006.479-1.798.479z" fill="currentColor"/><path fill-rule="evenodd" clip-rule="evenodd" d="M16 28c6.627 0 12-5.373 12-12S22.627 4 16 4 4 9.373 4 16s5.373 12 12 12zm.02-10.47l2.507 4.62h2.723l-2.855-5c.704-.274 1.265-.698 1.683-1.27.43-.572.644-1.32.644-2.244 0-.704-.121-1.292-.363-1.765a2.886 2.886 0 00-.974-1.139 3.94 3.94 0 00-1.452-.61 8.52 8.52 0 00-1.798-.182h-4.257v12.21h2.442v-4.62h1.7z" fill="currentColor"/></svg>