<svg width="16" height="16" viewBox="0 0 16 16" fill="none" xmlns="http://www.w3.org/2000/svg"><path d="M6 7H5v1h1V7zM5 9h1v1H5V9zM5 11h1v1H5v-1zM8 9H7v1h1V9zM7 11h1v1H7v-1z" fill="currentColor"/><path fill-rule="evenodd" clip-rule="evenodd" d="M2.707 2L2 2.707l1 1V14h7.5c.971 0 1.625-.28 2.028-.728a1.53 1.53 0 00.017-.02l.769.769.707-.707L2.707 2zm9.128 10.542L11 11.707V12H9V9.707l-5-5V13h6.5c.779 0 1.125-.22 1.285-.397a.784.784 0 00.05-.061z" fill="currentColor"/><path d="M9 7.293l2 2V7H9v.293z" fill="currentColor"/><path d="M12 3v7.293l1 1V2H3.707l1 1H12z" fill="currentColor"/><path d="M11 4H6l2 2h3V4z" fill="currentColor"/></svg>