<svg width="32" height="32" viewBox="0 0 32 32" fill="none" xmlns="http://www.w3.org/2000/svg"><path d="M11 14h2v2h-2v-2zM11 18h2v2h-2v-2zM15 18h2v2h-2v-2zM13 22h-2v2h2v-2zM15 22h2v2h-2v-2z" fill="currentColor"/><path fill-rule="evenodd" clip-rule="evenodd" d="M5 3.414l-1 1 2 2V28h15c1.942 0 3.25-.56 4.056-1.456.181-.202.33-.412.45-.624l1.121 1.122 1-1L5 3.414zM8 26V8.414l11 11V24h2v-2.586l2.965 2.965a1.685 1.685 0 01-.396.827c-.32.355-1.011.794-2.569.794H8z" fill="currentColor"/><path d="M26 21.586V4H8.414l2 2H24v13.586l2 2z" fill="currentColor"/><path d="M20.414 16H21v-2h-2v.586L20.414 16zM12.5 8H22v4h-5.5l-4-4z" fill="currentColor"/></svg>