<svg width="32" height="32" viewBox="0 0 32 32" fill="none" xmlns="http://www.w3.org/2000/svg"><path fill-rule="evenodd" clip-rule="evenodd" d="M18 4h-4v2.29c-2.892.86-5 3.539-5 6.71v1.86c0 1.337-.668 3.586-1.781 4.328L6 20v3h20v-3l-1.219-.813C23.668 18.447 23 16.197 23 14.86V13a7.003 7.003 0 00-5-6.71V4zm3 9a5 5 0 00-10 0v1.86c0 2.005-1.003 4.879-2.672 5.992L8.106 21h15.788l-.222-.148C22.002 19.739 21 16.865 21 14.859V13z" fill="currentColor"/><path d="M18 25a4 4 0 01-4 4v-4h4z" fill="currentColor"/></svg>