<svg width="32" height="32" viewBox="0 0 32 32" fill="none" xmlns="http://www.w3.org/2000/svg"><path fill-rule="evenodd" clip-rule="evenodd" d="M16 28c6.627 0 12-5.373 12-12S22.627 4 16 4 4 9.373 4 16s5.373 12 12 12zm-.835-16.095h4.426V9.97h-5.953c-.158.997-.483 2.96-.977 5.89l1.323.393c.273-.095.551-.173.835-.236.294-.063.588-.105.882-.126.714-.021 1.254.147 1.622.504.378.357.567.85.567 1.48 0 .682-.195 1.234-.583 1.654-.378.42-.924.63-1.638.63-.325 0-.614-.043-.866-.127a6.695 6.695 0 01-.63-.267 9.36 9.36 0 01-.472-.284 9.034 9.034 0 01-.599-.472L12 20.614c.2.19.43.368.693.536.262.168.54.32.835.456.304.126.624.226.96.3.336.084.688.126 1.055.126a5.1 5.1 0 001.764-.3 4.396 4.396 0 001.417-.866c.4-.378.71-.83.93-1.354A4.253 4.253 0 0020 17.779a4.12 4.12 0 00-.252-1.448 3.205 3.205 0 00-.74-1.166 3.37 3.37 0 00-1.213-.787c-.483-.189-1.04-.284-1.669-.284-.21 0-.43.011-.661.032-.22.01-.452.037-.693.079l.393-2.3z" fill="currentColor"/></svg>