<svg width="32" height="32" viewBox="0 0 32 32" fill="none" xmlns="http://www.w3.org/2000/svg"><path d="M14.977 16.695c-.122.427-.158.965-.11 1.616h2.064c-.024-.532.037-.965.183-1.296.146-.332.329-.61.548-.835a5.42 5.42 0 01.749-.639c.268-.19.517-.409.749-.657.243-.26.444-.58.603-.96.158-.378.237-.875.237-1.49 0-.534-.097-1.007-.292-1.422a3.014 3.014 0 00-.804-1.048 3.476 3.476 0 00-1.224-.674 5.083 5.083 0 00-1.497-.285c-.45-.023-.914.03-1.389.16a3.426 3.426 0 00-1.315.657c-.39.32-.724.746-1.004 1.28-.268.532-.426 1.189-.475 1.97h2.283c.049-.71.238-1.237.566-1.58.33-.344.75-.515 1.26-.515.512 0 .883.16 1.115.48.231.307.347.692.347 1.154 0 .367-.073.675-.22.923a2.928 2.928 0 01-.547.675 17.6 17.6 0 01-.676.622 4.222 4.222 0 00-.676.763 3.89 3.89 0 00-.475 1.101zM14.722 22.52c.316.32.712.48 1.187.48.487 0 .889-.16 1.205-.48.317-.331.475-.74.475-1.225 0-.485-.158-.888-.475-1.208-.316-.331-.718-.497-1.205-.497-.475 0-.87.166-1.188.497-.316.32-.474.723-.474 1.208s.158.894.475 1.225z" fill="currentColor"/><path fill-rule="evenodd" clip-rule="evenodd" d="M28 16c0 6.627-5.373 12-12 12S4 22.627 4 16 9.373 4 16 4s12 5.373 12 12zm-2 0c0 5.523-4.477 10-10 10S6 21.523 6 16 10.477 6 16 6s10 4.477 10 10z" fill="currentColor"/></svg>