<svg width="32" height="32" viewBox="0 0 32 32" fill="none" xmlns="http://www.w3.org/2000/svg"><path fill-rule="evenodd" clip-rule="evenodd" d="M16 28c6.627 0 12-5.373 12-12S22.627 4 16 4 4 9.373 4 16s5.373 12 12 12zm-1.023-10.971c-.122.426-.158.965-.11 1.616h2.065c-.025-.533.036-.965.182-1.297.146-.331.329-.61.548-.834.232-.237.481-.45.749-.64s.517-.408.749-.657c.243-.26.444-.58.603-.959.158-.379.237-.876.237-1.492 0-.533-.097-1.006-.292-1.42a3.015 3.015 0 00-.804-1.048 3.476 3.476 0 00-1.224-.675 5.082 5.082 0 00-1.497-.284c-.45-.024-.913.03-1.388.16a3.426 3.426 0 00-1.316.657c-.39.32-.724.746-1.004 1.278-.268.533-.426 1.19-.475 1.972h2.283c.049-.71.238-1.238.566-1.58.33-.344.75-.516 1.26-.516.512 0 .883.16 1.115.48.231.307.347.692.347 1.154 0 .367-.073.675-.22.923a2.929 2.929 0 01-.547.675c-.207.201-.433.409-.676.622a4.225 4.225 0 00-.676.764 3.895 3.895 0 00-.475 1.1zm-.255 5.825c.316.32.712.48 1.187.48.487 0 .889-.16 1.205-.48.317-.332.475-.74.475-1.226 0-.485-.158-.888-.475-1.207-.316-.332-.718-.498-1.205-.498-.475 0-.87.166-1.188.498-.316.32-.474.722-.474 1.207 0 .486.158.894.475 1.226z" fill="currentColor"/></svg>